<svg version="1.1" xmlns="http://www.w3.org/2000/svg" xmlns:xlink="http://www.w3.org/1999/xlink" width="48" height="48" viewBox="0,0,256,256"><g fill="none" fill-rule="nonzero" stroke="none" stroke-width="1" stroke-linecap="butt" stroke-linejoin="miter" stroke-miterlimit="10" stroke-dasharray="" stroke-dashoffset="0" font-family="none" font-weight="none" font-size="none" text-anchor="none" style="mix-blend-mode: normal"><g transform="scale(5.33333,5.33333)"><path d="M29.563,13.563l10.437,10.437c0.375,0.344 0.855,3.186 0.855,4.886c0,0.987 -0.196,2.312 -0.406,3.712c-0.22,1.483 -0.449,3.588 -0.449,4.832c0,1.418 1.154,2.57 2.57,2.57c1.42,0 2.43,-1.43 2.43,-2.43l-0.001,-9.353c0.125,-6.9 -9.513,-12.202 -15.436,-14.654z" fill="#06b6d4"></path><path d="M22,6l-16.972,16.285c-0.684,0.687 -1.028,1.63 -1.028,2.57c0,0.943 0.344,1.889 1.028,2.574l13.543,13.541c0.685,0.686 1.542,1.03 2.573,1.03c0.941,0 1.885,-0.344 2.571,-1.027l16.285,-16.973z" fill="#cfd8dc"></path><path d="M25,20.002c0,0 -9.347,-0.501 -13.072,-2.374c-1.747,-0.877 -2.926,-2.056 -2.926,-3.626l-0.006,-0.105c0,-0.004 0.021,-0.509 0.581,-1.127c0.78,-0.86 2.853,-2.196 8.104,-2.626l2.209,-2.12c-5.928,0.165 -9.896,1.311 -11.794,3.402c-1.07,1.179 -1.108,2.287 -1.095,2.604c0.012,2.269 1.406,3.889 3.413,5.051c4.848,2.805 14.586,2.921 14.586,2.921z" fill="#546e7a"></path></g></g></svg>